<svg xmlns="http://www.w3.org/2000/svg" xmlns:xlink="http://www.w3.org/1999/xlink" contentStyleType="text/css" data-diagram-type="ACTIVITY" height="1142px" preserveAspectRatio="none" style="width:845px;height:1142px;background:#FFFFFF;" version="1.1" viewBox="0 0 845 1142" width="845px" zoomAndPan="magnify"><title>&#191;Quiere debatir? H&#225;galo as&#237;</title><defs/><g><text fill="#000000" font-family="sans-serif" font-size="14" font-weight="bold" lengthAdjust="spacing" textLength="185.9375" x="328.4459" y="34.5332">&#191;Quiere debatir? H&#225;galo as&#237;</text><path d="M455.4766,48.6094 L455.4766,222.125 L828.4287,222.125 L828.4287,58.6094 L818.4287,48.6094 L455.4766,48.6094" fill="#FEFFDD" style="stroke:#181818;stroke-width:0.5;"/><path d="M818.4287,48.6094 L818.4287,58.6094 L828.4287,58.6094 L818.4287,48.6094" fill="#FEFFDD" style="stroke:#181818;stroke-width:0.5;"/><text fill="#000000" font-family="sans-serif" font-size="13" lengthAdjust="spacing" textLength="242.8105" x="461.4766" y="67.1045">Gracias por pedir un debate con nosotros.</text><text fill="#000000" font-family="sans-serif" font-size="13" lengthAdjust="spacing" textLength="317.2686" x="461.4766" y="83.4561">Los debates son di&#225;logos entre personas en los cuales</text><text fill="#000000" font-family="sans-serif" font-size="13" lengthAdjust="spacing" textLength="309.2896" x="461.4766" y="99.8076">los participantes est&#225;n dispuestos a cambiar su punto</text><text fill="#000000" font-family="sans-serif" font-size="13" lengthAdjust="spacing" textLength="289.0532" x="461.4766" y="116.1592">de vista si es razonable hacerlo. A veces, la gente</text><text fill="#000000" font-family="sans-serif" font-size="13" lengthAdjust="spacing" textLength="295.0708" x="461.4766" y="132.5107">confunde "debate" con "serm&#243;n" o "discurso". Esos</text><text fill="#000000" font-family="sans-serif" font-size="13" font-style="italic" lengthAdjust="spacing" textLength="65.0508" x="461.4766" y="148.8623">no-debates</text><text fill="#000000" font-family="sans-serif" font-size="13" lengthAdjust="spacing" textLength="241.3887" x="530.1392" y="148.8623">son una p&#233;rdida de tiempo pues todos los</text><text fill="#000000" font-family="sans-serif" font-size="13" lengthAdjust="spacing" textLength="284.0068" x="461.4766" y="165.2139">participantes est&#225;n aferrados a su punto de vista.</text><text fill="#000000" font-family="sans-serif" font-size="13" lengthAdjust="spacing" textLength="340.3677" x="461.4766" y="181.5654">Para no hacernos perder el tiempo, por favor use esta gu&#237;a</text><text fill="#000000" font-family="sans-serif" font-size="13" lengthAdjust="spacing" textLength="351.9521" x="461.4766" y="197.917">para establecer si de verdad podemos tener un debate sobre</text><text fill="#000000" font-family="sans-serif" font-size="13" lengthAdjust="spacing" textLength="128.6289" x="461.4766" y="214.2686">un tema de su inter&#233;s.</text><ellipse cx="425.4766" cy="135.3672" fill="#222222" rx="10" ry="10" style="stroke:#222222;stroke-width:1;"/><path d="M10,359.1416 L10,460.8994 L298.8359,460.8994 L298.8359,369.1416 L288.8359,359.1416 L10,359.1416" fill="#FEFFDD" style="stroke:#181818;stroke-width:0.5;"/><path d="M288.8359,359.1416 L288.8359,369.1416 L298.8359,369.1416 L288.8359,359.1416" fill="#FEFFDD" style="stroke:#181818;stroke-width:0.5;"/><text fill="#000000" font-family="sans-serif" font-size="13" font-weight="bold" lengthAdjust="spacing" textLength="198.6626" x="16" y="377.6367">Ejemplos de principios b&#225;sicos:</text><line style="stroke:#181818;stroke-width:1;" x1="10" x2="298.8359" y1="385.4932" y2="385.4932"/><ellipse cx="21.5" cy="399.3447" fill="#000000" rx="2.5" ry="2.5"/><text fill="#000000" font-family="sans-serif" font-size="13" lengthAdjust="spacing" textLength="251.4814" x="28" y="403.9883">La postura con m&#225;s evidencia respaldatoria</text><text fill="#000000" font-family="sans-serif" font-size="13" lengthAdjust="spacing" textLength="190.7852" x="23.2236" y="420.3398">debe aceptarse como verdadera.</text><ellipse cx="21.5" cy="432.0479" fill="#000000" rx="2.5" ry="2.5"/><text fill="#000000" font-family="sans-serif" font-size="13" lengthAdjust="spacing" textLength="90.3525" x="28" y="436.6914">La persona que</text><text fill="#000000" font-family="sans-serif" font-size="13" font-weight="bold" lengthAdjust="spacing" textLength="39.019" x="121.9644" y="436.6914">afirma</text><text fill="#000000" font-family="sans-serif" font-size="13" lengthAdjust="spacing" textLength="119.2407" x="164.5952" y="436.6914">algo debe demostrar</text><text fill="#000000" font-family="sans-serif" font-size="13" lengthAdjust="spacing" textLength="86.0044" x="23.2236" y="453.043">que es verdad.</text><rect fill="#F1F1F1" height="165.8438" rx="12.5" ry="12.5" style="stroke:#181818;stroke-width:0.5;" width="436.8828" x="207.0352" y="513.4893"/><text fill="#000000" font-family="sans-serif" font-size="12" font-weight="bold" lengthAdjust="spacing" textLength="102.0293" x="217.0352" y="535.9463">Eso es un debate.</text><line style="stroke:#181818;stroke-width:1;" x1="207.0352" x2="643.918" y1="543.583" y2="543.583"/><text fill="#000000" font-family="sans-serif" font-size="12" lengthAdjust="spacing" textLength="416.8828" x="217.0352" y="561.04">Hablaremos con usted de este tema siempre y cuando se sigan ciertas reglas.</text><text fill="#000000" font-family="sans-serif" font-size="12" lengthAdjust="spacing" textLength="3.334" x="217.0352" y="576.1338">&#160;</text><text fill="#000000" font-family="sans-serif" font-size="12" lengthAdjust="spacing" textLength="376.8574" x="217.0352" y="591.2275">1. No presente argumentos mientras haya otro argumento sin resolver.</text><text fill="#000000" font-family="sans-serif" font-size="12" lengthAdjust="spacing" textLength="372.9082" x="217.0352" y="606.3213">2. No pase a otro argumento si se muestra que un hecho en el que ha</text><text fill="#000000" font-family="sans-serif" font-size="12" lengthAdjust="spacing" textLength="191.4434" x="227.0371" y="621.415">basado su argumento es incorrecto.</text><text fill="#000000" font-family="sans-serif" font-size="12" lengthAdjust="spacing" textLength="324.8555" x="217.0352" y="636.5088">3. Proporcione evidencia para su posici&#243;n o sus argumentos.</text><text fill="#000000" font-family="sans-serif" font-size="12" lengthAdjust="spacing" textLength="222.0059" x="217.0352" y="651.6025">4. No alegue que "no necesita" evidencia.</text><text fill="#000000" font-family="sans-serif" font-size="12" lengthAdjust="spacing" textLength="3.334" x="217.0352" y="666.6963">&#160;</text><polygon fill="#F1F1F1" points="359.1301,699.333,491.823,699.333,503.823,713.1689,491.823,727.0049,359.1301,727.0049,347.1301,713.1689,359.1301,699.333" style="stroke:#181818;stroke-width:0.5;"/><text fill="#000000" font-family="sans-serif" font-size="11" lengthAdjust="spacing" textLength="132.6929" x="359.1301" y="710.752">&#191;Viol&#243; alguna de las reglas</text><text fill="#000000" font-family="sans-serif" font-size="11" lengthAdjust="spacing" textLength="66.6714" x="359.1301" y="724.5879">en el debate?</text><text fill="#000000" font-family="sans-serif" font-size="11" lengthAdjust="spacing" textLength="8.5562" x="338.574" y="710.752">s&#237;</text><text fill="#000000" font-family="sans-serif" font-size="11" lengthAdjust="spacing" textLength="12.2354" x="503.823" y="710.752">no</text><path d="M252.8562,737.5713 L252.8562,763.0986 L232.8562,767.0986 L252.8562,771.0986 L252.8562,796.626 A0,0 0 0 0 252.8562,796.626 L594.4348,796.626 A0,0 0 0 0 594.4348,796.626 L594.4348,747.5713 L584.4348,737.5713 L252.8562,737.5713 A0,0 0 0 0 252.8562,737.5713" fill="#FEFFDD" style="stroke:#181818;stroke-width:0.5;"/><path d="M584.4348,737.5713 L584.4348,747.5713 L594.4348,747.5713 L584.4348,737.5713" fill="#FEFFDD" style="stroke:#181818;stroke-width:0.5;"/><ellipse cx="264.3562" cy="751.4229" fill="#000000" rx="2.5" ry="2.5"/><text fill="#000000" font-family="sans-serif" font-size="13" lengthAdjust="spacing" textLength="308.5786" x="270.8562" y="756.0664">Se considera que Ud. concedi&#243; todos los argumentos</text><text fill="#000000" font-family="sans-serif" font-size="13" lengthAdjust="spacing" textLength="152.4771" x="266.0798" y="772.418">hechos hasta el momento.</text><ellipse cx="264.3562" cy="784.126" fill="#000000" rx="2.5" ry="2.5"/><text fill="#000000" font-family="sans-serif" font-size="13" lengthAdjust="spacing" textLength="277.5259" x="270.8562" y="788.7695">Ud. renuncia al derecho de quejarse del debate.</text><rect fill="#FF0000" height="60.1875" rx="12.5" ry="12.5" style="stroke:#181818;stroke-width:0.5;" width="134.0703" x="98.7859" y="737.0049"/><text fill="#000000" font-family="sans-serif" font-size="12" font-weight="bold" lengthAdjust="spacing" textLength="68.6777" x="108.7859" y="759.4619">Hizo trampa</text><line style="stroke:#181818;stroke-width:1;" x1="98.7859" x2="232.8562" y1="767.0986" y2="767.0986"/><text fill="#000000" font-family="sans-serif" font-size="12" lengthAdjust="spacing" textLength="114.0703" x="108.7859" y="784.5557">Se termin&#243; el debate.</text><rect fill="#90EE90" height="90.375" rx="12.5" ry="12.5" style="stroke:#181818;stroke-width:0.5;" width="141.3945" x="614.4348" y="737.0049"/><text fill="#000000" font-family="sans-serif" font-size="12" font-weight="bold" lengthAdjust="spacing" textLength="79.3652" x="624.4348" y="759.4619">Felicitaciones</text><line style="stroke:#181818;stroke-width:1;" x1="614.4348" x2="755.8293" y1="767.0986" y2="767.0986"/><text fill="#000000" font-family="sans-serif" font-size="12" lengthAdjust="spacing" textLength="121.3945" x="624.4348" y="784.5557">As&#237; intercambian ideas</text><text fill="#000000" font-family="sans-serif" font-size="12" lengthAdjust="spacing" textLength="100.7168" x="624.4348" y="799.6494">los seres humanos</text><text fill="#000000" font-family="sans-serif" font-size="12" lengthAdjust="spacing" textLength="58.0313" x="624.4348" y="814.7432">racionales.</text><polygon fill="#F1F1F1" points="425.4766,833.3799,437.4766,845.3799,425.4766,857.3799,413.4766,845.3799,425.4766,833.3799" style="stroke:#181818;stroke-width:0.5;"/><ellipse cx="425.4766" cy="888.3799" fill="none" rx="11" ry="11" style="stroke:#222222;stroke-width:1;"/><ellipse cx="425.4766" cy="888.3799" fill="#222222" rx="6" ry="6" style="stroke:#222222;stroke-width:1;"/><polygon fill="#F1F1F1" points="310.8359,460.8994,540.1172,460.8994,552.1172,474.7354,540.1172,488.5713,310.8359,488.5713,298.8359,474.7354,310.8359,460.8994" style="stroke:#181818;stroke-width:0.5;"/><text fill="#000000" font-family="sans-serif" font-size="11" lengthAdjust="spacing" textLength="8.5562" x="429.4766" y="499.9902">s&#237;</text><text fill="#000000" font-family="sans-serif" font-size="11" lengthAdjust="spacing" textLength="229.2813" x="310.8359" y="472.3184">&#191;Est&#225; preparado para regirse por los principios</text><text fill="#000000" font-family="sans-serif" font-size="11" lengthAdjust="spacing" textLength="188.332" x="310.8359" y="486.1543">b&#225;sicos de la raz&#243;n al debatir el tema?</text><text fill="#000000" font-family="sans-serif" font-size="11" lengthAdjust="spacing" textLength="12.2354" x="552.1172" y="472.3184">no</text><polygon fill="#F1F1F1" points="317.5498,294.7148,533.4033,294.7148,545.4033,315.4688,533.4033,336.2227,317.5498,336.2227,305.5498,315.4688,317.5498,294.7148" style="stroke:#181818;stroke-width:0.5;"/><text fill="#000000" font-family="sans-serif" font-size="11" lengthAdjust="spacing" textLength="8.5562" x="429.4766" y="347.6416">s&#237;</text><text fill="#000000" font-family="sans-serif" font-size="11" lengthAdjust="spacing" textLength="206.6743" x="317.5498" y="306.1338">Si se muestra que uno de sus argumentos</text><text fill="#000000" font-family="sans-serif" font-size="11" lengthAdjust="spacing" textLength="215.8535" x="317.5498" y="319.9697">tiene fallas, dejar&#225; de usarlo? (con cualquier</text><text fill="#000000" font-family="sans-serif" font-size="11" lengthAdjust="spacing" textLength="119.2275" x="320.606" y="333.8057">interlocutor, en el futuro)</text><text fill="#000000" font-family="sans-serif" font-size="11" lengthAdjust="spacing" textLength="12.2354" x="545.4033" y="313.0518">no</text><polygon fill="#F1F1F1" points="425.4766,941.3799,437.4766,953.3799,425.4766,965.3799,413.4766,953.3799,425.4766,941.3799" style="stroke:#181818;stroke-width:0.5;"/><polygon fill="#F1F1F1" points="341.094,242.125,509.8591,242.125,521.8591,255.9609,509.8591,269.7969,341.094,269.7969,329.094,255.9609,341.094,242.125" style="stroke:#181818;stroke-width:0.5;"/><text fill="#000000" font-family="sans-serif" font-size="11" lengthAdjust="spacing" textLength="8.5562" x="429.4766" y="281.2158">s&#237;</text><text fill="#000000" font-family="sans-serif" font-size="11" lengthAdjust="spacing" textLength="168.1743" x="341.094" y="253.5439">&#191;Puede imaginar algo que lo haga</text><text fill="#000000" font-family="sans-serif" font-size="11" lengthAdjust="spacing" textLength="168.7651" x="341.094" y="267.3799">cambiar de opini&#243;n sobre el tema?</text><text fill="#000000" font-family="sans-serif" font-size="11" lengthAdjust="spacing" textLength="12.2354" x="521.8591" y="253.5439">no</text><polygon fill="#F1F1F1" points="425.4766,985.3799,437.4766,997.3799,425.4766,1009.3799,413.4766,997.3799,425.4766,985.3799" style="stroke:#181818;stroke-width:0.5;"/><rect fill="#FF0000" height="60.1875" rx="12.5" ry="12.5" style="stroke:#181818;stroke-width:0.5;" width="207.418" x="321.7676" y="1029.3799"/><text fill="#000000" font-family="sans-serif" font-size="12" font-weight="bold" lengthAdjust="spacing" textLength="144.6914" x="331.7676" y="1051.8369">Esto no es una discusi&#243;n</text><line style="stroke:#181818;stroke-width:1;" x1="321.7676" x2="529.1855" y1="1059.4736" y2="1059.4736"/><text fill="#000000" font-family="sans-serif" font-size="12" lengthAdjust="spacing" textLength="187.418" x="331.7676" y="1076.9307">No discutiremos el tema con usted.</text><ellipse cx="425.4766" cy="1120.5674" fill="none" rx="11" ry="11" style="stroke:#222222;stroke-width:1;"/><ellipse cx="425.4766" cy="1120.5674" fill="#222222" rx="6" ry="6" style="stroke:#222222;stroke-width:1;"/><line style="stroke:#181818;stroke-width:1;" x1="347.1301" x2="165.821" y1="713.1689" y2="713.1689"/><line style="stroke:#181818;stroke-width:1;" x1="165.821" x2="165.821" y1="713.1689" y2="737.0049"/><polygon fill="#181818" points="161.821,727.0049,165.821,737.0049,169.821,727.0049,165.821,731.0049" style="stroke:#181818;stroke-width:1;"/><line style="stroke:#181818;stroke-width:1;" x1="503.823" x2="685.1321" y1="713.1689" y2="713.1689"/><line style="stroke:#181818;stroke-width:1;" x1="685.1321" x2="685.1321" y1="713.1689" y2="737.0049"/><polygon fill="#181818" points="681.1321,727.0049,685.1321,737.0049,689.1321,727.0049,685.1321,731.0049" style="stroke:#181818;stroke-width:1;"/><line style="stroke:#181818;stroke-width:1;" x1="165.821" x2="165.821" y1="797.1924" y2="845.3799"/><line style="stroke:#181818;stroke-width:1;" x1="165.821" x2="413.4766" y1="845.3799" y2="845.3799"/><polygon fill="#181818" points="403.4766,841.3799,413.4766,845.3799,403.4766,849.3799,407.4766,845.3799" style="stroke:#181818;stroke-width:1;"/><line style="stroke:#181818;stroke-width:1;" x1="685.1321" x2="685.1321" y1="827.3799" y2="845.3799"/><line style="stroke:#181818;stroke-width:1;" x1="685.1321" x2="437.4766" y1="845.3799" y2="845.3799"/><polygon fill="#181818" points="447.4766,841.3799,437.4766,845.3799,447.4766,849.3799,443.4766,845.3799" style="stroke:#181818;stroke-width:1;"/><line style="stroke:#181818;stroke-width:1;" x1="425.4766" x2="425.4766" y1="679.333" y2="699.333"/><polygon fill="#181818" points="421.4766,689.333,425.4766,699.333,429.4766,689.333,425.4766,693.333" style="stroke:#181818;stroke-width:1;"/><line style="stroke:#181818;stroke-width:1;" x1="425.4766" x2="425.4766" y1="857.3799" y2="877.3799"/><polygon fill="#181818" points="421.4766,867.3799,425.4766,877.3799,429.4766,867.3799,425.4766,871.3799" style="stroke:#181818;stroke-width:1;"/><line style="stroke:#181818;stroke-width:1;" x1="425.4766" x2="425.4766" y1="488.5713" y2="513.4893"/><polygon fill="#181818" points="421.4766,503.4893,425.4766,513.4893,429.4766,503.4893,425.4766,507.4893" style="stroke:#181818;stroke-width:1;"/><line style="stroke:#181818;stroke-width:1;" x1="552.1172" x2="775.8293" y1="474.7354" y2="474.7354"/><polygon fill="#181818" points="771.8293,692.5166,775.8293,702.5166,779.8293,692.5166,775.8293,696.5166" style="stroke:#181818;stroke-width:1;"/><line style="stroke:#181818;stroke-width:1;" x1="775.8293" x2="775.8293" y1="474.7354" y2="921.3799"/><line style="stroke:#181818;stroke-width:1;" x1="775.8293" x2="425.4766" y1="921.3799" y2="921.3799"/><line style="stroke:#181818;stroke-width:1;" x1="425.4766" x2="425.4766" y1="921.3799" y2="941.3799"/><polygon fill="#181818" points="421.4766,931.3799,425.4766,941.3799,429.4766,931.3799,425.4766,935.3799" style="stroke:#181818;stroke-width:1;"/><line style="stroke:#181818;stroke-width:1;" x1="425.4766" x2="425.4766" y1="336.2227" y2="460.8994"/><polygon fill="#181818" points="421.4766,450.8994,425.4766,460.8994,429.4766,450.8994,425.4766,454.8994" style="stroke:#181818;stroke-width:1;"/><line style="stroke:#181818;stroke-width:1;" x1="545.4033" x2="797.8293" y1="315.4688" y2="315.4688"/><polygon fill="#181818" points="793.8293,645.3428,797.8293,655.3428,801.8293,645.3428,797.8293,649.3428" style="stroke:#181818;stroke-width:1;"/><line style="stroke:#181818;stroke-width:1;" x1="797.8293" x2="797.8293" y1="315.4688" y2="953.3799"/><line style="stroke:#181818;stroke-width:1;" x1="797.8293" x2="437.4766" y1="953.3799" y2="953.3799"/><polygon fill="#181818" points="447.4766,949.3799,437.4766,953.3799,447.4766,957.3799,443.4766,953.3799" style="stroke:#181818;stroke-width:1;"/><line style="stroke:#181818;stroke-width:1;" x1="425.4766" x2="425.4766" y1="269.7969" y2="294.7148"/><polygon fill="#181818" points="421.4766,284.7148,425.4766,294.7148,429.4766,284.7148,425.4766,288.7148" style="stroke:#181818;stroke-width:1;"/><line style="stroke:#181818;stroke-width:1;" x1="521.8591" x2="819.8293" y1="255.9609" y2="255.9609"/><polygon fill="#181818" points="815.8293,640.0479,819.8293,650.0479,823.8293,640.0479,819.8293,644.0479" style="stroke:#181818;stroke-width:1;"/><line style="stroke:#181818;stroke-width:1;" x1="819.8293" x2="819.8293" y1="255.9609" y2="997.3799"/><line style="stroke:#181818;stroke-width:1;" x1="819.8293" x2="437.4766" y1="997.3799" y2="997.3799"/><polygon fill="#181818" points="447.4766,993.3799,437.4766,997.3799,447.4766,1001.3799,443.4766,997.3799" style="stroke:#181818;stroke-width:1;"/><line style="stroke:#181818;stroke-width:1;" x1="425.4766" x2="425.4766" y1="965.3799" y2="985.3799"/><polygon fill="#181818" points="421.4766,975.3799,425.4766,985.3799,429.4766,975.3799,425.4766,979.3799" style="stroke:#181818;stroke-width:1;"/><line style="stroke:#181818;stroke-width:1;" x1="425.4766" x2="425.4766" y1="145.3672" y2="242.125"/><polygon fill="#181818" points="421.4766,232.125,425.4766,242.125,429.4766,232.125,425.4766,236.125" style="stroke:#181818;stroke-width:1;"/><line style="stroke:#181818;stroke-width:1;" x1="425.4766" x2="425.4766" y1="1009.3799" y2="1029.3799"/><polygon fill="#181818" points="421.4766,1019.3799,425.4766,1029.3799,429.4766,1019.3799,425.4766,1023.3799" style="stroke:#181818;stroke-width:1;"/><line style="stroke:#181818;stroke-width:1;" x1="425.4766" x2="425.4766" y1="1089.5674" y2="1109.5674"/><polygon fill="#181818" points="421.4766,1099.5674,425.4766,1109.5674,429.4766,1099.5674,425.4766,1103.5674" style="stroke:#181818;stroke-width:1;"/><!--SRC=[TLKzRzmu4EtrAmPxZRrmPDn7TIcC5Bvp4Hny2EugDxFYh9O6HIeaPI3vDovJfCeFC63ziNj3IQiznzd2biZXyBrvRqRPPYVq_FJtO2KA6Tbnjl6ARiR7bbqWJkFNAcMEkTgxW3tVaWzPADhsaAi_8pUM4_KXKY_6HXhyb4Ie2HwXAUGOKbsz3sdUI9ImO-puw4ABLV4PD_SIiSpwIWwhpS1EKgMFFMwtZUtPws59UNpKywaVy8nzfeQxdUL8QQ1-y3bKHkZ10ZObYmCK-JDoxy3qm8r45sfwHm_IIBeWnzG2WbJ0knyyJcucd9l2O9CaTkCtlw603PkQ0JWtDLsdaAhBIn_UpAmkBmklmJFruvTeh64GfcobwmCfLih102ueLQzIuht4oAOmMfZGmgIkRZao2ZfHy5eNYKOYYPilkIWoxFa1VuSacXRSXl4hwtrStb43dDQoQ68aO8DJHZhao-BbLC0KTb4gl6Vf2XU0iW0SnoyGLBmfJgZidiwUdsu7GOJjkBKUIh1h0tqS16m1kEKxlsY4gD1RRr7JwOP203TSdLC-GFqpMEwy8jAy7oo1IAT2Wu3c6toOeA1AiHqwI1VIdKS5l82xSmnDZTnp71yrS4WClQ_eJCLKKtrKfz_vYOaBpP13l53N0SP-o4CCvo-0J52UdwvL9kgZQ3LDe5BKAAsDmAYbBsQDraDOgw1susEoJJ6-sWmkLDBibZRx4NFzbIPpii_p-tPxVG-HtPHjlOMMItxVRkVGD_Wjf-Wzx1WIQ76nSuTeaWTh1ESLVUhP6KODBCzdIE49mMKz-Zvf8tTXzef46F4qzTIrHPdjblSsThpTJkgNBCLPq2uUasieF3_bMv8TpJIzWWlwIyEERgnVetS3FtCivbLoGyfYj3omYqokJTePyDWdrTv3DF19jcLu0JR8c3SG49wfgpdbppNz5LJaf4FXn6FKMPrKE77WJqmwrjPTvFHQpE30Qo7rovIASUKhyTyRcmxI7C9iHLqwh9BGZfDw3Ysu9a5zO8CGepGvBBV-MjDj3B1ZOmDQOjMws5NdIe1VIlk55ssqfFYj0CVyRG52WMpGT5x7fSsyMLCkyM_d_rER_6k36x-f1tGM5kilLRxp4xb9qjTiJ_HJ50FzR-pdGAXDr_DH-VzfJ_H1DOwTzRZjcBH-Uzm_-KujIriz1AiagrOktFunjQuq-7eXpt54dvHb5M5II1sWenLtTg64r2SNQBueVYWrBxqUYwocbFA-T9HPuHvFlcW1SOWxy-6aC4wfj574epv_Y8EAcOlAwKSbUeVIJfDk6hyOUqPuPQH4yO63aGv3n_w4QooPzHjyh2WGsltyZ0zlNtsFSmavNPtMrfKrpImrvchG3rjfTwRoaKrgq9dLaH5CMJOnEalFp-DpxNr0LM3_0G00]--></g></svg>